<svg xmlns="http://www.w3.org/2000/svg" version="1.1" xmlns:xlink="http://www.w3.org/1999/xlink"
   xmlns:svgjs="http://svgjs.dev/svgjs" width="1000" height="1000" viewBox="0 0 1000 1000">
   <rect width="1000" height="1000" fill="#ffffff"></rect>
   <g transform="matrix(0.7,0,0,0.7,150.34008840914345,82.78809716599193)">
      <svg viewBox="0 0 207 247" data-background-color="#ffffff" preserveAspectRatio="xMidYMid meet"
         height="1193" width="1000" xmlns="http://www.w3.org/2000/svg"
         xmlns:xlink="http://www.w3.org/1999/xlink">
         <g id="tight-bounds" transform="matrix(1,0,0,1,-0.1005690009895659,-0.09999999999999432)">
            <svg viewBox="0 0 207.20113800197913 247.2" height="247.2" width="207.20113800197913">
               <g>
                  <svg viewBox="0 0 397.49759999999986 474.2319837985706" height="247.2"
                     width="207.20113800197913">
                     <g>
                        <rect width="397.49759999999986" height="14.525099315043237" x="0"
                           y="260.6170508149419" fill="#093d65" opacity="1" stroke-width="0"
                           stroke="transparent" fill-opacity="1" class="rect-o-0"
                           data-fill-palette-color="primary" rx="1%" id="o-0"
                           data-palette-color="#093d65"></rect>
                     </g>
                     <g transform="matrix(1,0,0,1,0.9887999999999693,313.16597032643335)">
                        <svg viewBox="0 0 395.5199999999999 161.0660134721372"
                           height="161.0660134721372" width="395.5199999999999">
                           <g id="textblocktransform">
                              <svg viewBox="0 0 395.5199999999999 161.0660134721372"
                                 height="161.0660134721372" width="395.5199999999999" id="textblock">
                                 <g>
                                    <svg viewBox="0 0 395.5199999999999 161.0660134721372"
                                       height="161.0660134721372" width="395.5199999999999">
                                       <g transform="matrix(1,0,0,1,0,0)">
                                          <svg width="395.5199999999999"
                                             viewBox="1.149999976158142 -33.04999923706055 81.6500015258789 33.25"
                                             height="161.0660134721372" data-palette-color="#093d65">
                                             <g class="undefined-text-0"
                                                data-fill-palette-color="primary" id="text-0">
                                                <path
                                                   d="M13.5 0L1.15 0 1.15-1.05 2.1-1.35Q3.1-1.7 3.45-2.27 3.8-2.85 3.8-3.85L3.8-3.85 3.8-29.15Q3.8-30.15 3.48-30.75 3.15-31.35 2.15-31.7L2.15-31.7 1.15-32 1.15-33.05 13.5-33.05 13.5-32 12.65-31.75Q11.7-31.4 11.35-30.83 11-30.25 11-29.25L11-29.25 11-17.75 23.45-17.75 23.45-29.25Q23.45-30.25 23.1-30.83 22.75-31.4 21.75-31.75L21.75-31.75 20.95-32 20.95-33.05 33.3-33.05 33.3-32 32.35-31.7Q31.4-31.35 31.03-30.78 30.65-30.2 30.65-29.2L30.65-29.2 30.65-3.85Q30.65-2.85 31.03-2.27 31.4-1.7 32.35-1.35L32.35-1.35 33.3-1.05 33.3 0 20.95 0 20.95-1.05 21.75-1.3Q22.75-1.65 23.1-2.23 23.45-2.8 23.45-3.8L23.45-3.8 23.45-16.25 11-16.25 11-3.8Q11-2.8 11.38-2.23 11.75-1.65 12.7-1.3L12.7-1.3 13.5-1.05 13.5 0ZM50.6 0L35.9 0 35.9-0.95 37.85-1.55Q39.75-2.15 39.8-4.05L39.8-4.05 39.8-27.85 35.65-27.3 35.65-28.45Q38.45-28.95 41.12-29.93 43.8-30.9 46.2-32.3L46.2-32.3 46.8-31.8 46.6-24.65 46.6-10.45Q46.6-9.15 46.62-7.43 46.65-5.7 46.65-4.1L46.65-4.1Q46.65-2.15 48.55-1.55L48.55-1.55 50.6-0.95 50.6 0ZM61.2 0L53.5 0 53.5-1.05 54.95-1.45Q55.9-1.7 56.27-2.4 56.65-3.1 56.65-4.1L56.65-4.1 56.65-28.3Q56.2-29.25 55.87-29.73 55.55-30.2 55.2-30.55 54.85-30.9 54.25-31.35L54.25-31.35 53.35-32 53.35-33.05 61.9-33.05 78.5-10.35 78.5-28.9Q78.5-29.9 78.17-30.65 77.84-31.4 76.84-31.65L76.84-31.65 75.34-32 75.34-33.05 82.8-33.05 82.8-32 81.55-31.65Q80.59-31.35 80.37-30.63 80.15-29.9 80.15-28.9L80.15-28.9 80.15 0.2 77.34 0.2 58.3-26 58.3-4.15Q58.3-3.1 58.6-2.4 58.9-1.7 59.85-1.45L59.85-1.45 61.2-1.05 61.2 0Z"
                                                   fill="#093d65" data-fill-palette-color="primary"></path>
                                             </g>
                                          </svg>
                                       </g>
                                    </svg>
                                 </g>
                              </svg>
                           </g>
                        </svg>
                     </g>
                     <g transform="matrix(1,0,0,1,112.62941925743633,0)">
                        <svg viewBox="0 0 172.2387614851272 222.59323061849364"
                           height="222.59323061849364" width="172.2387614851272">
                           <g>
                              <svg xmlns="http://www.w3.org/2000/svg"
                                 xmlns:xlink="http://www.w3.org/1999/xlink" version="1.1" x="0"
                                 y="0"
                                 viewBox="12.982999801635742 1 75.68599700927734 97.81300354003906"
                                 enable-background="new 0 0 100 100" xml:space="preserve"
                                 height="222.59323061849364" width="172.2387614851272"
                                 class="icon-icon-0" data-fill-palette-color="accent" id="icon-0"><g fill="#f98e54" data-fill-palette-color="accent"><polygon fill-rule="evenodd" clip-rule="evenodd" points="12.983,10.59 30.001,98.813 24.129,39.764 53.15,37.872 53.096,27.989    64.549,1 53.622,18.977  " fill="#f98e54" data-fill-palette-color="accent"></polygon><polygon fill-rule="evenodd" clip-rule="evenodd" points="59.389,54.548 64.549,1.007 55.809,40.723 36.197,41.768 37.767,62.23    30.001,98.813 42.058,58.914  " fill="#f98e54" data-fill-palette-color="accent"></polygon><polygon fill-rule="evenodd" clip-rule="evenodd" points="62.8,67.182 63.349,56.729 47.37,60.484 47.338,72.281 30.001,98.813    51.681,71.197  " fill="#f98e54" data-fill-palette-color="accent"></polygon><polygon fill-rule="evenodd" clip-rule="evenodd" points="65.711,62.394 80.552,57.663 82.061,45.131 66.162,47.226  " fill="#f98e54" data-fill-palette-color="accent"></polygon><polygon fill-rule="evenodd" clip-rule="evenodd" points="72.07,44.502 83.058,43.085 84.639,32.807 76.56,32.434 64.549,1    72.979,31.967  " fill="#f98e54" data-fill-palette-color="accent"></polygon><polygon fill-rule="evenodd" clip-rule="evenodd" points="87.413,31.294 88.669,21.788 79.125,19.094 64.549,1 79.032,23.437    78.61,30.437  " fill="#f98e54" data-fill-palette-color="accent"></polygon></g></svg>
                           </g>
                        </svg>
                     </g>
                     <g></g>
                  </svg>
               </g>
               <defs></defs>
            </svg>
            <rect width="207.20113800197913" height="247.2" fill="none" stroke="none"
               visibility="hidden"></rect>
         </g>
      </svg>
   </g>
</svg>