<svg xmlns="http://www.w3.org/2000/svg" version="1.1" xmlns:xlink="http://www.w3.org/1999/xlink"
   xmlns:svgjs="http://svgjs.dev/svgjs" width="1000" height="1000" viewBox="0 0 1000 1000">
   <rect width="1000" height="1000" fill="#ffffff"></rect>
   <g transform="matrix(0.7,0,0,0.7,149.6157492354739,348.7231265957447)">
      <svg viewBox="0 0 327 141" data-background-color="#ffffff" preserveAspectRatio="xMidYMid meet"
         height="431" width="1000" xmlns="http://www.w3.org/2000/svg"
         xmlns:xlink="http://www.w3.org/1999/xlink">
         <g id="tight-bounds" transform="matrix(1,0,0,1,0.17950000000004707,0.19949999999997203)">
            <svg viewBox="0 0 326.64075520958096 140.60052000000002" height="140.60052000000002"
               width="326.64075520958096">
               <g>
                  <svg viewBox="0 0 326.64075520958096 140.60052000000002"
                     height="140.60052000000002" width="326.64075520958096">
                     <g>
                        <svg viewBox="0 0 326.64075520958096 140.60052000000002"
                           height="140.60052000000002" width="326.64075520958096">
                           <g>
                              <path d="M0 140.601v-140.601h326.641v140.601z" fill="#e65728"
                                 stroke="transparent" stroke-width="0" rx="0%"
                                 data-fill-palette-color="tertiary"></path>
                              <path d="M3.283 137.317v-134.034h320.074v134.034z" fill="#ffffff"
                                 stroke="transparent" stroke-width="0" rx="0%"
                                 data-fill-palette-color="quaternary"></path>
                              <path d="M9.85 130.751v-120.901h306.941v120.901z" fill="#e65728"
                                 stroke="transparent" stroke-width="0"
                                 data-fill-palette-color="tertiary"></path>
                           </g>
                           <g transform="matrix(1,0,0,1,19.69974,19.69974)" id="textblocktransform">
                              <svg viewBox="0 0 287.241275209581 101.20104000000002"
                                 height="101.20104000000002" width="287.241275209581" id="textblock">
                                 <g>
                                    <svg viewBox="0 0 287.241275209581 101.20104000000002"
                                       height="101.20104000000002" width="287.241275209581">
                                       <g transform="matrix(1,0,0,1,0,0)">
                                          <svg width="287.241275209581"
                                             viewBox="1.6500000953674316 -33.400001525878906 94.79999542236328 33.400001525878906"
                                             height="101.20104000000002"
                                             data-palette-color="#ffffff">
                                             <path
                                                d="M39.4-1.2L39.4 0 24.1 0 24.1-1.2 28.45-1.65 28.45-16.5 12.65-16.5 12.65-1.65 17-1.2 17 0 1.65 0 1.65-1.2 6-1.65 6-31.75 1.65-32.2 1.65-33.4 17-33.4 17-32.2 12.65-31.75 12.65-18.3 28.45-18.3 28.45-31.75 24.1-32.2 24.1-33.4 39.4-33.4 39.4-32.2 35.05-31.75 35.05-1.65 39.4-1.2ZM43.5-23.15L43.5-24.35 56.8-24.35 56.8-23.15 53.35-22.9 53.35-1.45 56.8-1.15 56.8 0 43.5 0 43.5-1.15 46.95-1.45 46.95-22.95 43.5-23.15ZM86.34-32.2L86.34-33.4 96.45-33.4 96.45-32.2 92.95-31 92.95 0 89.55 0 67.3-27.4 67.3-2.45 71.5-1.2 71.5 0 61.5 0 61.5-1.2 65.15-2.45 65.15-31.75 60.8-32.2 60.8-33.4 70.2-33.4 90.2-8.5 90.2-31.05 86.34-32.2Z"
                                                opacity="1" transform="matrix(1,0,0,1,0,0)"
                                                fill="#ffffff" class="undefined-text-0"
                                                data-fill-palette-color="quaternary" id="text-0"></path>
                                          </svg>
                                       </g>
                                    </svg>
                                 </g>
                              </svg>
                           </g>
                        </svg>
                     </g>
                     <g></g>
                  </svg>
               </g>
               <defs></defs>
            </svg>
            <rect width="326.64075520958096" height="140.60052000000002" fill="none" stroke="none"
               visibility="hidden"></rect>
         </g>
      </svg>
   </g>
</svg>